<svg xmlns="http://www.w3.org/2000/svg" viewBox="0 0 120 120" width="120" height="120">
  <rect width="120" height="120" fill="white"/>
  <g fill="#333">
    <!-- Top-left position marker -->
    <rect x="10" y="10" width="30" height="30"/>
    <rect x="15" y="15" width="20" height="20" fill="white"/>
    <rect x="20" y="20" width="10" height="10"/>
    
    <!-- Top-right position marker -->
    <rect x="80" y="10" width="30" height="30"/>
    <rect x="85" y="15" width="20" height="20" fill="white"/>
    <rect x="90" y="20" width="10" height="10"/>
    
    <!-- Bottom-left position marker -->
    <rect x="10" y="80" width="30" height="30"/>
    <rect x="15" y="85" width="20" height="20" fill="white"/>
    <rect x="20" y="90" width="10" height="10"/>
    
    <!-- Random data pattern -->
    <rect x="50" y="10" width="5" height="5"/>
    <rect x="60" y="10" width="5" height="5"/>
    <rect x="50" y="20" width="5" height="5"/>
    <rect x="65" y="25" width="5" height="5"/>
    <rect x="10" y="50" width="5" height="5"/>
    <rect x="20" y="55" width="5" height="5"/>
    <rect x="30" y="50" width="5" height="5"/>
    <rect x="50" y="50" width="5" height="5"/>
    <rect x="60" y="55" width="5" height="5"/>
    <rect x="70" y="50" width="5" height="5"/>
    <rect x="80" y="55" width="5" height="5"/>
    <rect x="90" y="50" width="5" height="5"/>
    <rect x="100" y="55" width="5" height="5"/>
    <rect x="50" y="70" width="5" height="5"/>
    <rect x="55" y="75" width="5" height="5"/>
    <rect x="65" y="70" width="5" height="5"/>
    <rect x="50" y="85" width="5" height="5"/>
    <rect x="60" y="90" width="5" height="5"/>
    <rect x="70" y="95" width="5" height="5"/>
    <rect x="80" y="85" width="5" height="5"/>
    <rect x="95" y="90" width="5" height="5"/>
  </g>
</svg>
