<svg xmlns="http://www.w3.org/2000/svg" viewBox="0 0 600 400" role="img" aria-label="Knowledge graph linking historical figures, books, and ideas">
  <rect width="600" height="400" fill="#f5f3ed"/>
  <g stroke="#2c3e50" stroke-width="1.5" stroke-opacity="0.4" fill="none">
    <line x1="300" y1="200" x2="120" y2="100"/>
    <line x1="300" y1="200" x2="500" y2="110"/>
    <line x1="300" y1="200" x2="110" y2="300"/>
    <line x1="300" y1="200" x2="510" y2="310"/>
    <line x1="300" y1="200" x2="300" y2="60"/>
    <line x1="300" y1="200" x2="300" y2="350"/>
    <line x1="120" y1="100" x2="300" y2="60"/>
    <line x1="500" y1="110" x2="300" y2="60"/>
    <line x1="110" y1="300" x2="300" y2="350"/>
    <line x1="510" y1="310" x2="300" y2="350"/>
  </g>

  <g>
    <circle cx="300" cy="200" r="46" fill="#2c3e50"/>
    <circle cx="300" cy="186" r="14" fill="#f5f3ed"/>
    <path d="M278 222 q22 -22 44 0 v8 h-44 z" fill="#f5f3ed"/>
  </g>

  <g transform="translate(120,100)">
    <circle r="30" fill="#c9a86c"/>
    <circle cy="-8" r="9" fill="#fff"/>
    <path d="M-14 14 q14 -14 28 0 v6 h-28 z" fill="#fff"/>
  </g>
  <g transform="translate(500,110)">
    <circle r="30" fill="#c9a86c"/>
    <circle cy="-8" r="9" fill="#fff"/>
    <path d="M-14 14 q14 -14 28 0 v6 h-28 z" fill="#fff"/>
  </g>
  <g transform="translate(110,300)">
    <circle r="30" fill="#c9a86c"/>
    <circle cy="-8" r="9" fill="#fff"/>
    <path d="M-14 14 q14 -14 28 0 v6 h-28 z" fill="#fff"/>
  </g>
  <g transform="translate(510,310)">
    <circle r="30" fill="#c9a86c"/>
    <circle cy="-8" r="9" fill="#fff"/>
    <path d="M-14 14 q14 -14 28 0 v6 h-28 z" fill="#fff"/>
  </g>

  <g transform="translate(300,60)">
    <rect x="-22" y="-18" width="44" height="36" rx="3" fill="#fff" stroke="#2c3e50" stroke-width="2"/>
    <line x1="-14" y1="-8" x2="14" y2="-8" stroke="#2c3e50" stroke-width="1.5"/>
    <line x1="-14" y1="-2" x2="14" y2="-2" stroke="#2c3e50" stroke-width="1.5"/>
    <line x1="-14" y1="4" x2="10" y2="4" stroke="#2c3e50" stroke-width="1.5"/>
    <line x1="-14" y1="10" x2="14" y2="10" stroke="#2c3e50" stroke-width="1.5"/>
  </g>

  <g transform="translate(300,350)">
    <rect x="-26" y="-14" width="52" height="28" rx="4" fill="#fff" stroke="#2c3e50" stroke-width="2"/>
    <text text-anchor="middle" y="5" font-family="Chivo,system-ui,sans-serif" font-size="12" font-weight="700" fill="#2c3e50">IDEA</text>
  </g>
</svg>
