<svg xmlns="http://www.w3.org/2000/svg" viewBox="0 0 500 500"><rect width="500" height="500" fill="#e7c45b"/><g fill="#2d494c" font-family="Arial, sans-serif">
<text x="30" y="55" font-size="34" font-weight="700" letter-spacing="-1">COLLECTIVE</text><text x="30" y="96" font-size="34" font-weight="700" letter-spacing="-1">CREATIVITY</text>
<g fill="#f7e7be" stroke="#a88336" stroke-width="2"><rect x="33" y="183" width="133" height="102" transform="rotate(-7 33 183)"/><rect x="312" y="228" width="143" height="110" transform="rotate(9 312 228)"/><rect x="79" y="333" width="136" height="99" transform="rotate(-4 79 333)"/></g>
<g stroke="#507778" fill="none" stroke-width="4"><path d="M60 254q31-80 75-24M340 301l24-37 59 38M111 389l29-24 44 31"/></g>
<path d="M272 407l-32-123 84-80" fill="none" stroke="#2d494c" stroke-width="12" stroke-linejoin="round"/>
<circle cx="240" cy="284" r="12"/><path d="M292 165l66 57-92 23z" fill="#d2543c"/><path d="M266 245l-86 133 158-4z" fill="#fff7d3" opacity=".65"/>
<ellipse cx="278" cy="422" rx="47" ry="9"/>
<text x="30" y="470" font-size="13" letter-spacing="2">ED CATMULL / PIXAR</text></g></svg>
